<svg width="71" height="74" viewBox="0 0 71 74" fill="none" xmlns="http://www.w3.org/2000/svg">
<path d="M0.177536 25.5703L11.8797 35.4886C6.22883 35.3107 5.52247 39.278 5.95889 42.0745C6.27157 44.0845 6.81371 46.1187 7.57406 48.0102C7.69554 48.3133 7.82376 48.6143 7.95874 48.9108C9.86861 53.1132 13.3869 56.8279 17.6453 58.8292C22.9542 61.3225 30.0921 60.703 31.8197 54.317C32.7893 50.7341 32.2696 46.635 31.5543 43.0477C30.6455 38.4828 28.8413 34.1354 26.1509 30.2933C21.3661 23.4658 14.037 18.6241 6.26032 15.6453C5.92289 15.5157 3.92979 14.6019 3.62835 14.7776C4.05801 14.5294 20.2548 4.4067 28.8368 15.0917C28.6119 13.677 28.6546 13.1498 28.7648 11.7153C28.9088 9.87443 29.8784 6.75723 30.9469 5.28101C32.0852 3.71033 33.4169 1.83429 34.8769 0.544796C35.0838 0.362465 35.2953 0.180134 35.5045 0C35.7137 0.180134 35.9252 0.360268 36.1321 0.544796C37.5921 1.83649 38.9261 3.71033 40.0621 5.28101C41.1306 6.75503 42.1002 9.87443 42.2442 11.7153C42.3566 13.1498 42.3971 13.677 42.1722 15.0917C50.7542 4.4067 66.9532 14.5294 67.3807 14.7776C67.0792 14.6019 65.0861 15.5157 64.7487 15.6453C56.972 18.6241 49.6407 23.4658 44.8581 30.2933C42.1654 34.1354 40.3635 38.4828 39.4547 43.0477C38.7394 46.635 38.222 50.7341 39.1893 54.317C40.9147 60.703 48.0525 61.3247 53.3637 58.8292C57.6221 56.8279 61.1404 53.1154 63.0503 48.9108C63.1852 48.6143 63.3135 48.3133 63.4349 48.0102C64.193 46.1165 64.7352 44.0823 65.0501 42.0745C65.4865 39.278 64.7802 35.3085 59.1293 35.4886L70.827 25.5703C71.2184 34.3661 71.3264 43.7001 66.8228 51.6238C62.886 58.5502 56.1396 63.449 48.9388 66.8144C44.6039 68.8398 39.9519 70.6785 36.0534 73.5409L35.5 74L34.9466 73.5409C31.0504 70.6807 26.3983 68.842 22.0612 66.8144C14.8604 63.449 8.11396 58.5502 4.17724 51.6238C-0.326363 43.7001 -0.218384 34.3639 0.173035 25.5703H0.177536Z" fill="#C7B09C"/>
</svg>
